<?xml version="1.0" encoding="UTF-8" standalone="no"?>
<!-- Created with Inkscape (http://www.inkscape.org/) -->

<svg
   width="210mm"
   height="297mm"
   viewBox="0 0 210 297"
   version="1.1"
   id="svg5"
   inkscape:version="1.2 (dc2aedaf03, 2022-05-15)"
   sodipodi:docname="home_symbol.svg"
   xmlns:inkscape="http://www.inkscape.org/namespaces/inkscape"
   xmlns:sodipodi="http://sodipodi.sourceforge.net/DTD/sodipodi-0.dtd"
   xmlns="http://www.w3.org/2000/svg"
   xmlns:svg="http://www.w3.org/2000/svg">
  <sodipodi:namedview
     id="namedview7"
     pagecolor="#ffffff"
     bordercolor="#000000"
     borderopacity="0.25"
     inkscape:showpageshadow="2"
     inkscape:pageopacity="0.0"
     inkscape:pagecheckerboard="true"
     inkscape:deskcolor="#d1d1d1"
     inkscape:document-units="mm"
     showgrid="false"
     inkscape:zoom="0.72515432"
     inkscape:cx="397.15684"
     inkscape:cy="561.94935"
     inkscape:window-width="1920"
     inkscape:window-height="1001"
     inkscape:window-x="-9"
     inkscape:window-y="-9"
     inkscape:window-maximized="1"
     inkscape:current-layer="layer1" />
  <defs
     id="defs2">
    <clipPath
       clipPathUnits="userSpaceOnUse"
       id="clipPath982">
      <path
         id="path984"
         style="fill:#ff0000;fill-opacity:1;fill-rule:nonzero;stroke:none;stroke-width:0.264583"
         d="m 76.430994,58.98038 c 0.04187,0.225917 0.0681,0.452932 0.05891,0.68213 -0.0329,0.821113 -1.895719,2.689037 -2.350762,3.439065 -1.125654,1.527426 -2.267395,3.043946 -3.433898,4.540292 -1.279324,1.669965 -2.586948,3.312544 -3.929994,4.931481 -1.640477,2.032402 -3.251406,4.089548 -4.933032,6.088518 -2.156248,2.551194 -4.33076,5.086194 -6.586161,7.55096 -2.677459,3.07355 -5.359326,6.146696 -8.238774,9.035108 -1.708964,1.648113 -3.429947,3.284426 -5.169712,4.899956 -0.746604,0.6933 -1.452139,0.96175 -2.022615,0.93535 v 184.1133 H 170.81128 V 58.98038 Z m -24.053829,0.494543 c -1.618567,-0.0024 -3.233436,0.07286 -4.849833,0.197405 -1.634252,0.283634 -3.521123,-0.05841 -5.065324,0.620634 -0.159276,0.100523 -0.367038,0.211029 -0.492993,0.361217 -0.27741,0.330787 -0.388453,1.344647 -0.460954,1.705324 -0.376907,2.325039 -0.447919,4.684324 -0.519348,7.034194 -0.03772,3.056033 0.124444,6.107964 0.2589,9.159647 0.102478,2.872968 0.322665,5.739731 0.473355,8.610328 0.06818,2.177603 0.223401,4.350477 0.356569,6.524667 0.02466,0.389345 0.04525,0.778788 0.06459,1.168405 0.782619,-0.742823 1.565474,-1.485833 2.341975,-2.235006 2.801406,-2.817083 5.412553,-5.811653 8.020699,-8.805664 2.243092,-2.451421 4.406497,-4.972289 6.551022,-7.509619 1.663256,-1.978414 3.256815,-4.013316 4.879806,-6.024438 1.324642,-1.594371 2.612538,-3.21359 3.873148,-4.859136 1.15261,-1.478249 2.281428,-2.976105 3.393075,-4.485513 0.209605,-0.335106 0.456213,-0.647401 0.712099,-0.953948 -0.167095,-0.01651 -0.334351,-0.03281 -0.501777,-0.04548 -2.134848,-0.16155 -4.277402,-0.206415 -6.416661,-0.267685 -3.665578,-0.08923 -7.331829,-0.13418 -10.998296,-0.16588 -0.54062,-0.019 -1.080534,-0.02865 -1.620057,-0.02946 z" />
    </clipPath>
  </defs>
  <g
     inkscape:label="Layer 1"
     inkscape:groupmode="layer"
     id="layer1">
    <path
       id="rect531"
       clip-path="url(#clipPath982)"
       style="fill:#000000;stroke-width:0.263002"
       d="m 39.824959,58.980379 v 6.942729 c 0.0012,-0.0027 0.0024,-0.0056 0.0036,-0.0083 0.216421,-1.927918 0.340178,-3.864064 0.306441,-5.809465 -0.0074,-0.426424 0.03941,-0.799345 0.123507,-1.124996 z m 33.552991,0 c -0.269903,0.713077 -0.719534,1.407299 -1.082104,1.931665 -1.088929,1.574856 -2.466205,2.952872 -3.779098,4.335136 -0.290718,0.290671 -0.584497,0.578316 -0.877983,0.866097 -1.177309,1.704549 -2.392187,3.383718 -3.675744,5.01003 -0.967701,1.223295 -1.957645,2.427274 -2.957959,3.622518 -0.434693,1.023117 -0.909566,2.029279 -1.428337,3.014286 -1.179949,2.10132 -2.507215,4.122796 -3.966166,6.041492 -1.567018,2.075954 -3.176397,4.120167 -4.821928,6.134509 -1.294248,1.623031 -2.530191,3.33672 -4.203361,4.598169 -1.371146,1.03553 -2.813004,1.969418 -4.318083,2.79983 -0.655384,0.342821 -1.549472,0.835622 -2.442228,1.139982 V 285.19655 h 35.702214 v -99.27973 h 59.837687 v 99.27973 h 35.44642 V 58.980379 Z"
       transform="matrix(0.92704212,0,0,0.67778756,4.7499105,50.134976)" />
    <path
       sodipodi:type="star"
       style="fill:#000000;stroke-width:0.264583"
       id="path587"
       inkscape:flatsided="true"
       sodipodi:sides="3"
       sodipodi:cx="16.054054"
       sodipodi:cy="52.905407"
       sodipodi:r1="96.217155"
       sodipodi:r2="48.108574"
       sodipodi:arg1="0.51115005"
       sodipodi:arg2="1.5583476"
       inkscape:rounded="0.07"
       inkscape:randomized="0"
       d="M 99.972974,99.972975 C 94.266334,110.1476 -60.708948,112.07695 -66.667115,102.04754 -72.625282,92.01813 3.191498,-43.159074 14.856304,-43.304293 26.52111,-43.449513 105.67961,89.798347 99.972974,99.972975 Z"
       inkscape:transform-center-x="-0.57803942"
       inkscape:transform-center-y="-15.191043"
       transform="matrix(0.99781863,0,0,0.75101844,85.597092,84.082868)" />
  </g>
</svg>
